<svg xmlns="http://www.w3.org/2000/svg" width="1100" height="870" viewBox="0 0 1100 870">
<style>text{font-family:Arial,sans-serif;fill:#172033}.muted{fill:#667085}.grid{stroke:#e5e7eb}.axis{stroke:#9ca3af}.line{fill:none;stroke-width:3}.dot{stroke:white;stroke-width:2}.panel-title{font-size:16px;font-weight:700}</style>
<rect width="100%" height="100%" fill="#ffffff"/>
<text x="78" y="36" font-size="24" font-weight="700">Jonathan Tennis Trend</text>
<text x="78" y="60" font-size="13" class="muted">WTN, USTA points, and USTA rank are charted on separate scales.</text>
<text x="92" y="96" class="panel-title">USTA Points</text>
<line class="grid" x1="92" y1="284.0" x2="930" y2="284.0"/>
<text x="80" y="288.0" text-anchor="end" font-size="12" class="muted">222.64</text>
<line class="grid" x1="92" y1="226.7" x2="930" y2="226.7"/>
<text x="80" y="230.7" text-anchor="end" font-size="12" class="muted">235.547</text>
<line class="grid" x1="92" y1="169.3" x2="930" y2="169.3"/>
<text x="80" y="173.3" text-anchor="end" font-size="12" class="muted">248.453</text>
<line class="grid" x1="92" y1="112.0" x2="930" y2="112.0"/>
<text x="80" y="116.0" text-anchor="end" font-size="12" class="muted">261.36</text>
<line class="axis" x1="92" y1="284" x2="930" y2="284"/>
<line class="axis" x1="92" y1="112" x2="92" y2="284"/>
<polyline class="line" stroke="#2563eb" points="92.0,198.0"/>
<circle class="dot" cx="92.0" cy="198.0" r="5" fill="#2563eb"><title>Boys' 12 Northern California Quota List Points 2026-06-03: 242</title></circle>
<text x="101.0" y="190.0" font-size="12" fill="#2563eb">242</text>
<circle cx="954" cy="112" r="6" fill="#2563eb"/>
<text x="968" y="117" font-size="12">Points</text>
<text x="92" y="346" class="panel-title">USTA NorCal Rank (lower is better)</text>
<line class="grid" x1="92" y1="534.0" x2="930" y2="534.0"/>
<text x="80" y="538.0" text-anchor="end" font-size="12" class="muted">133.4</text>
<line class="grid" x1="92" y1="476.7" x2="930" y2="476.7"/>
<text x="80" y="480.7" text-anchor="end" font-size="12" class="muted">141.133</text>
<line class="grid" x1="92" y1="419.3" x2="930" y2="419.3"/>
<text x="80" y="423.3" text-anchor="end" font-size="12" class="muted">148.867</text>
<line class="grid" x1="92" y1="362.0" x2="930" y2="362.0"/>
<text x="80" y="366.0" text-anchor="end" font-size="12" class="muted">156.6</text>
<line class="axis" x1="92" y1="534" x2="930" y2="534"/>
<line class="axis" x1="92" y1="362" x2="92" y2="534"/>
<polyline class="line" stroke="#2563eb" points="92.0,448.0"/>
<circle class="dot" cx="92.0" cy="448.0" r="5" fill="#2563eb"><title>Boys' 12 Northern California Quota List NorCal Rank 2026-06-03: 145</title></circle>
<text x="101.0" y="440.0" font-size="12" fill="#2563eb">145</text>
<circle cx="954" cy="362" r="6" fill="#2563eb"/>
<text x="968" y="367" font-size="12">NorCal Rank</text>
<text x="92" y="596" class="panel-title">WTN Number (lower is better)</text>
<line class="grid" x1="92" y1="784.0" x2="930" y2="784.0"/>
<text x="80" y="788.0" text-anchor="end" font-size="12" class="muted">35.77</text>
<line class="grid" x1="92" y1="726.7" x2="930" y2="726.7"/>
<text x="80" y="730.7" text-anchor="end" font-size="12" class="muted">36.0233</text>
<line class="grid" x1="92" y1="669.3" x2="930" y2="669.3"/>
<text x="80" y="673.3" text-anchor="end" font-size="12" class="muted">36.2767</text>
<line class="grid" x1="92" y1="612.0" x2="930" y2="612.0"/>
<text x="80" y="616.0" text-anchor="end" font-size="12" class="muted">36.53</text>
<line class="axis" x1="92" y1="784" x2="930" y2="784"/>
<line class="axis" x1="92" y1="612" x2="92" y2="784"/>
<polyline class="line" stroke="#2563eb" points="930.0,612.0"/>
<circle class="dot" cx="930.0" cy="612.0" r="5" fill="#2563eb"><title>WTN Doubles 2026-06-10: 36.53</title></circle>
<text x="939.0" y="604.0" font-size="12" fill="#2563eb">36.53</text>
<circle cx="954" cy="612" r="6" fill="#2563eb"/>
<text x="968" y="617" font-size="12">Doubles</text>
<polyline class="line" stroke="#059669" points="930.0,784.0"/>
<circle class="dot" cx="930.0" cy="784.0" r="5" fill="#059669"><title>WTN Singles 2026-06-10: 35.77</title></circle>
<text x="939.0" y="776.0" font-size="12" fill="#059669">35.77</text>
<circle cx="954" cy="634" r="6" fill="#059669"/>
<text x="968" y="639" font-size="12">Singles</text>
<text x="92.0" y="848" text-anchor="middle" font-size="12" class="muted">2026-06-03</text>
<text x="930.0" y="848" text-anchor="middle" font-size="12" class="muted">2026-06-10</text>
</svg>
